<svg width="319" height="88" viewBox="0 0 319 88" fill="none" xmlns="http://www.w3.org/2000/svg">
<g filter="url(#filter0_b_5_33)">
<path d="M38.7589 87.6522C27.6213 86.4977 31.4455 72.8853 24.1685 64.3751C16.8915 55.8648 0.115395 57.5555 0.0879841 44.042C0.676891 32.8602 15.9567 32.0903 24.0874 24.3916C32.2181 16.6928 32.1486 0.537109 43.3458 0.558888C54.5431 0.580667 56.7061 16.5786 64.8068 24.309C72.9075 32.0393 86.3779 32.6819 86.9233 43.8659C86.9487 56.3982 72.193 53.3576 64.8829 61.8395C57.5728 70.3213 58.7359 86.5582 47.5939 87.6694L43.8294 49.9219C45.2911 49.7761 46.641 49.0743 47.6001 47.9616C48.5591 46.8488 49.054 45.4101 48.9824 43.9428C48.9109 42.4756 48.2783 41.0919 47.2156 40.0777C46.1528 39.0635 44.7411 38.4964 43.272 38.4935C41.803 38.4907 40.3891 39.0523 39.3224 40.0623C38.2557 41.0724 37.6178 42.4536 37.5405 43.9206C37.4632 45.3876 37.9525 46.8282 38.9072 47.9447C39.8619 49.0611 41.2091 49.7682 42.6703 49.9196L38.7589 87.6522Z" fill="#FFFFEA"/>
<path d="M64.8522 40.9193C68.3999 42.791 68.4102 47.8683 64.8701 49.7544L54.8673 55.0837C53.9844 55.5541 53.2629 56.2785 52.796 57.1633L47.5073 67.1877C45.6356 70.7354 40.5584 70.7457 38.6723 67.2056L33.343 57.2028C32.8726 56.3199 32.1481 55.5984 31.2633 55.1316L21.2389 49.8429C17.6913 47.9712 17.681 42.8939 21.221 41.0078L31.2238 35.6785C32.1068 35.2081 32.8283 34.4837 33.2951 33.5988L38.5838 23.5745C40.4555 20.0268 45.5328 20.0165 47.4188 23.5565L52.7482 33.5594C53.2186 34.4423 53.943 35.1638 54.8278 35.6306L64.8522 40.9193Z" fill="#CAEE62"/>
<path d="M131.076 42.1972C131.076 39.5572 130.386 37.7572 129.006 36.7972C127.656 35.8072 125.751 35.3122 123.291 35.3122L121.806 35.3122C121.506 35.3122 121.131 35.3422 120.681 35.4022C120.261 35.4322 119.871 35.5372 119.511 35.7172C119.181 35.8672 119.016 36.1522 119.016 36.5722L119.016 49.0822C119.346 49.2022 119.721 49.2772 120.141 49.3072C120.561 49.3372 120.951 49.3522 121.311 49.3522C122.511 49.3522 123.681 49.2472 124.821 49.0372C125.991 48.8272 127.041 48.4672 127.971 47.9572C128.931 47.4472 129.681 46.7272 130.221 45.7972C130.791 44.8672 131.076 43.6672 131.076 42.1972ZM140.931 66.4522C140.931 66.6622 140.721 66.8272 140.301 66.9472C139.881 67.0672 139.386 67.1422 138.816 67.1722C138.246 67.2322 137.706 67.2622 137.196 67.2622C136.716 67.2622 136.386 67.2622 136.206 67.2622C135.006 67.2622 134.046 67.1422 133.326 66.9022C132.606 66.6322 131.901 65.9572 131.211 64.8772C129.741 62.5072 128.316 60.1072 126.936 57.6772C125.586 55.2472 124.236 52.8022 122.886 50.3422L119.016 50.4772L119.016 64.7422C119.016 65.1922 119.196 65.4922 119.556 65.6422C119.916 65.7922 120.276 65.8672 120.636 65.8672C121.056 65.8672 121.461 65.8522 121.851 65.8222C122.241 65.7922 122.631 65.7772 123.021 65.7772C123.231 65.7772 123.351 65.8672 123.381 66.0472C123.441 66.2272 123.471 66.3922 123.471 66.5422C123.471 66.7822 123.396 66.9472 123.246 67.0372C123.126 67.0972 122.961 67.1272 122.751 67.1272C121.431 67.1272 120.096 67.1122 118.746 67.0822C117.396 67.0222 116.061 66.9922 114.741 66.9922C114.021 66.9922 113.301 67.0222 112.581 67.0822C111.891 67.1122 111.186 67.1272 110.466 67.1272C110.286 67.1272 110.166 67.0522 110.106 66.9022C110.076 66.7222 110.061 66.5722 110.061 66.4522C110.061 66.0622 110.226 65.8672 110.556 65.8672C110.826 65.8672 111.081 65.8822 111.321 65.9122C111.591 65.9122 111.846 65.9122 112.086 65.9122C112.536 65.9122 113.016 65.8672 113.526 65.7772C114.066 65.6572 114.366 65.3122 114.426 64.7422C114.486 63.9922 114.501 63.1222 114.471 62.1322C114.471 61.1122 114.471 60.2272 114.471 59.4772C114.471 58.4872 114.471 57.4972 114.471 56.5072C114.471 55.4872 114.471 54.4822 114.471 53.4922C114.471 51.4222 114.471 49.3522 114.471 47.2822C114.501 45.2122 114.516 43.1422 114.516 41.0722C114.516 40.3222 114.516 39.5722 114.516 38.8222C114.516 38.0422 114.486 37.2922 114.426 36.5722C114.366 35.9722 114.051 35.6422 113.481 35.5822C112.941 35.4922 112.446 35.4472 111.996 35.4472C111.816 35.4472 111.636 35.4622 111.456 35.4922C111.276 35.4922 111.096 35.4922 110.916 35.4922C110.466 35.4922 110.241 35.2372 110.241 34.7272C110.241 34.3972 110.391 34.2322 110.691 34.2322C111.711 34.2322 112.716 34.2622 113.706 34.3222C114.726 34.3822 115.746 34.4122 116.766 34.4122C118.176 34.4122 119.571 34.3522 120.951 34.2322C122.331 34.1122 123.711 34.0522 125.091 34.0522C126.231 34.0522 127.431 34.1722 128.691 34.4122C129.981 34.6522 131.181 35.0422 132.291 35.5822C133.401 36.1222 134.301 36.8722 134.991 37.8322C135.711 38.7622 136.071 39.9472 136.071 41.3872C136.071 43.1872 135.561 44.7472 134.541 46.0672C133.551 47.3572 132.261 48.3622 130.671 49.0822C130.101 49.3522 129.516 49.5622 128.916 49.7122C128.316 49.8322 127.716 49.9522 127.116 50.0722C128.496 52.4122 129.936 54.7222 131.436 57.0022C132.966 59.2822 134.511 61.5322 136.071 63.7522C136.521 64.3822 136.986 64.8922 137.466 65.2822C137.976 65.6422 138.606 65.8972 139.356 66.0472C139.536 66.0772 139.836 66.0922 140.256 66.0922C140.706 66.0922 140.931 66.2122 140.931 66.4522ZM159.157 51.3772C159.127 50.1472 159.022 48.9772 158.842 47.8672C158.662 46.7272 158.227 45.7972 157.537 45.0772C156.847 44.3272 155.722 43.9522 154.162 43.9522C152.752 43.9522 151.597 44.3422 150.697 45.1222C149.827 45.8722 149.152 46.8322 148.672 48.0022C148.192 49.1422 147.832 50.3122 147.592 51.5122C148.342 51.5422 149.077 51.5722 149.797 51.6022C150.517 51.6022 151.237 51.6022 151.957 51.6022C153.157 51.6022 154.357 51.5872 155.557 51.5572C156.757 51.4972 157.957 51.4372 159.157 51.3772ZM164.332 61.6822C164.332 61.8322 164.302 61.9222 164.242 61.9522C164.152 62.2522 163.927 62.6122 163.567 63.0322C163.237 63.4522 162.862 63.8572 162.442 64.2472C162.022 64.6072 161.677 64.8772 161.407 65.0572C160.417 65.7472 159.292 66.3022 158.032 66.7222C156.802 67.1422 155.572 67.3522 154.342 67.3522C153.322 67.3522 152.182 67.1872 150.922 66.8572C149.692 66.5272 148.642 66.0772 147.772 65.5072C146.092 64.3972 144.862 62.9422 144.082 61.1422C143.302 59.3422 142.912 57.4672 142.912 55.5172C142.912 53.2972 143.347 51.2422 144.217 49.3522C145.087 47.4622 146.482 45.9322 148.402 44.7622C149.272 44.2522 150.247 43.8322 151.327 43.5022C152.407 43.1422 153.442 42.9622 154.432 42.9622C156.202 42.9622 157.762 43.3222 159.112 44.0422C160.462 44.7622 161.512 45.7822 162.262 47.1022C163.042 48.3922 163.432 49.9372 163.432 51.7372C163.432 52.2472 163.312 52.5772 163.072 52.7272C162.862 52.8772 162.532 52.9522 162.082 52.9522C161.482 52.9522 160.882 52.9372 160.282 52.9072C159.682 52.8772 159.082 52.8472 158.482 52.8172C157.642 52.7572 156.802 52.7272 155.962 52.7272C155.152 52.7272 154.327 52.7272 153.487 52.7272C152.467 52.7272 151.447 52.7272 150.427 52.7272C149.407 52.7272 148.387 52.7572 147.367 52.8172C147.337 53.2972 147.307 53.7622 147.277 54.2122C147.247 54.6622 147.232 55.1272 147.232 55.6072C147.232 56.7172 147.367 57.8722 147.637 59.0722C147.907 60.2422 148.342 61.3372 148.942 62.3572C149.542 63.3472 150.307 64.1572 151.237 64.7872C152.167 65.3872 153.292 65.6872 154.612 65.6872C155.962 65.6872 157.252 65.4772 158.482 65.0572C159.712 64.6372 160.837 63.9622 161.857 63.0322C162.127 62.7622 162.367 62.4772 162.577 62.1772C162.817 61.8472 163.072 61.5622 163.342 61.3222C163.492 61.1722 163.657 61.0972 163.837 61.0972C163.987 61.0972 164.107 61.1572 164.197 61.2772C164.287 61.3972 164.332 61.5322 164.332 61.6822ZM181.609 61.9072C181.489 60.5572 181.414 59.2072 181.384 57.8572C181.384 56.4772 181.369 55.0972 181.339 53.7172L180.709 53.7172C179.779 53.7172 178.744 53.8672 177.604 54.1672C176.494 54.4372 175.429 54.8572 174.409 55.4272C173.389 55.9972 172.549 56.7172 171.889 57.5872C171.259 58.4272 170.944 59.4022 170.944 60.5122C170.944 61.9522 171.349 63.0472 172.159 63.7972C172.969 64.5172 174.064 64.8772 175.444 64.8772C176.104 64.8772 176.824 64.7272 177.604 64.4272C178.384 64.0972 179.134 63.7072 179.854 63.2572C180.574 62.8072 181.159 62.3572 181.609 61.9072ZM189.484 64.7872C189.484 64.9072 189.469 64.9972 189.439 65.0572C189.139 65.7172 188.629 66.2272 187.909 66.5872C187.219 66.9172 186.529 67.0822 185.839 67.0822C184.579 67.0822 183.664 66.7222 183.094 66.0022C182.554 65.2522 182.119 64.3372 181.789 63.2572C180.649 64.3072 179.389 65.1922 178.009 65.9122C176.629 66.6022 175.144 66.9472 173.554 66.9472C172.444 66.9472 171.394 66.7372 170.404 66.3172C169.444 65.8672 168.664 65.2222 168.064 64.3822C167.464 63.5422 167.164 62.5222 167.164 61.3222C167.164 60.0622 167.479 58.9822 168.109 58.0822C168.769 57.1522 169.594 56.3722 170.584 55.7422C171.604 55.0822 172.684 54.5572 173.824 54.1672C174.994 53.7472 176.089 53.4322 177.109 53.2222C177.799 53.0722 178.504 52.9372 179.224 52.8172C179.944 52.6972 180.649 52.5772 181.339 52.4572C181.339 51.6172 181.294 50.6422 181.204 49.5322C181.144 48.4222 180.919 47.5072 180.529 46.7872C180.139 46.0972 179.614 45.4822 178.954 44.9422C178.294 44.4022 177.559 44.1322 176.749 44.1322C175.369 44.1322 174.289 44.4922 173.509 45.2122C172.729 45.9322 172.174 46.9522 171.844 48.2722C171.814 48.4222 171.784 48.5872 171.754 48.7672C171.754 48.9172 171.739 49.0672 171.709 49.2172C171.679 49.3972 171.559 49.5622 171.349 49.7122C171.169 49.8322 170.974 49.8922 170.764 49.8922C170.194 49.8922 169.669 49.7572 169.189 49.4872C168.739 49.2172 168.514 48.7672 168.514 48.1372C168.514 47.7772 168.574 47.4622 168.694 47.1922C169.084 46.2622 169.714 45.4972 170.584 44.8972C171.454 44.2672 172.414 43.7872 173.464 43.4572C174.544 43.1272 175.549 42.9622 176.479 42.9622C178.099 42.9622 179.569 43.2622 180.889 43.8622C182.209 44.4622 183.259 45.3472 184.039 46.5172C184.849 47.6572 185.254 49.0972 185.254 50.8372C185.254 52.7872 185.239 54.7522 185.209 56.7322C185.209 58.7122 185.269 60.6922 185.389 62.6722C185.419 63.3322 185.554 63.9172 185.794 64.4272C186.034 64.9072 186.529 65.1472 187.279 65.1472C187.669 65.1472 188.074 65.0572 188.494 64.8772C188.944 64.6672 189.229 64.5622 189.349 64.5622C189.439 64.5622 189.484 64.6372 189.484 64.7872ZM203.971 66.5872C203.971 66.7372 203.926 66.8872 203.836 67.0372C203.776 67.1572 203.656 67.2172 203.476 67.2172C202.546 67.2172 201.601 67.2022 200.641 67.1722C199.681 67.1122 198.721 67.0822 197.761 67.0822L196.186 67.0822C195.556 67.0822 194.926 67.1122 194.296 67.1722C193.666 67.2022 193.036 67.2172 192.406 67.2172C192.286 67.2172 192.196 67.1722 192.136 67.0822C192.106 66.9622 192.091 66.8572 192.091 66.7672C192.091 66.6772 192.091 66.5872 192.091 66.4972C192.091 66.4072 192.106 66.3172 192.136 66.2272C192.196 66.1072 192.361 66.0472 192.631 66.0472C192.931 66.0172 193.231 66.0172 193.531 66.0472C193.861 66.0472 194.071 66.0472 194.161 66.0472C194.581 66.0472 194.956 65.9572 195.286 65.7772C195.616 65.5672 195.781 65.2222 195.781 64.7422C195.781 62.4322 195.796 60.1372 195.826 57.8572C195.856 55.5472 195.871 53.2522 195.871 50.9722C195.871 48.6322 195.856 46.2922 195.826 43.9522C195.826 41.5822 195.826 39.2272 195.826 36.8872C195.826 36.6772 195.811 36.4522 195.781 36.2122C195.751 35.9422 195.661 35.7322 195.511 35.5822C195.391 35.4322 195.271 35.3572 195.151 35.3572C195.031 35.3272 194.881 35.3122 194.701 35.3122C194.161 35.3122 193.621 35.4022 193.081 35.5822C192.571 35.7622 192.061 35.8522 191.551 35.8522C191.221 35.8522 191.056 35.6572 191.056 35.2672C191.056 35.0272 191.236 34.8622 191.596 34.7722C191.986 34.6822 192.286 34.6222 192.496 34.5922C193.546 34.3522 194.686 34.0822 195.916 33.7822C197.146 33.4822 198.256 33.1372 199.246 32.7472C199.306 32.7472 199.366 32.7322 199.426 32.7022C199.486 32.6722 199.531 32.6572 199.561 32.6572C199.741 32.6572 199.846 32.7172 199.876 32.8372C199.936 32.9572 199.966 33.0922 199.966 33.2422C199.966 34.0822 199.951 34.9222 199.921 35.7622C199.921 36.5722 199.921 37.3972 199.921 38.2372L199.921 50.8372C199.921 53.1472 199.936 55.4722 199.966 57.8122C199.996 60.1222 200.011 62.4322 200.011 64.7422C200.011 65.2222 200.206 65.5672 200.596 65.7772C201.016 65.9572 201.421 66.0472 201.811 66.0472C202.141 66.0472 202.456 66.0322 202.756 66.0022C203.056 65.9722 203.356 65.9572 203.656 65.9572C203.806 65.9572 203.896 66.0472 203.926 66.2272C203.956 66.3772 203.971 66.4972 203.971 66.5872ZM232.443 43.4572C232.443 43.7572 232.338 43.9222 232.128 43.9522C231.918 43.9822 231.633 43.9972 231.273 43.9972C230.943 43.9972 230.598 44.0722 230.238 44.2222C229.908 44.3722 229.608 44.7172 229.338 45.2572C227.868 48.1372 226.518 51.0772 225.288 54.0772C224.058 57.0772 222.708 60.0172 221.238 62.8972C220.368 64.6372 219.498 66.3772 218.628 68.1172C217.788 69.8872 216.843 71.5972 215.793 73.2472C215.223 74.1472 214.548 74.8672 213.768 75.4072C212.988 75.9472 212.058 76.2172 210.978 76.2172C210.078 76.2172 209.253 76.0222 208.503 75.6322C207.783 75.2422 207.423 74.5372 207.423 73.5172C207.423 72.8572 207.663 72.3022 208.143 71.8522C208.653 71.4022 209.223 71.1772 209.853 71.1772C210.123 71.1772 210.393 71.2222 210.663 71.3122C210.483 71.6722 210.393 72.0172 210.393 72.3472C210.393 72.7972 210.558 73.1422 210.888 73.3822C211.248 73.6522 211.623 73.7872 212.013 73.7872C212.613 73.7872 213.153 73.6072 213.633 73.2472C214.143 72.9172 214.548 72.5122 214.848 72.0322C215.388 71.2222 215.838 70.3222 216.198 69.3322C216.588 68.3422 216.783 67.3672 216.783 66.4072C216.783 65.9872 216.753 65.5672 216.693 65.1472C216.633 64.7272 216.543 64.3222 216.423 63.9322C216.243 63.3022 216.033 62.6872 215.793 62.0872C215.553 61.4572 215.313 60.8422 215.073 60.2422C214.683 59.2822 214.293 58.3372 213.903 57.4072C213.543 56.4772 213.153 55.5472 212.733 54.6172C212.163 53.2672 211.593 51.9172 211.023 50.5672C210.483 49.1872 209.883 47.8522 209.223 46.5622C209.133 46.4122 209.043 46.2622 208.953 46.1122C208.893 45.9622 208.803 45.8122 208.683 45.6622C208.533 45.4222 208.338 45.2272 208.098 45.0772C207.888 44.8972 207.618 44.8072 207.288 44.8072C207.078 44.8072 206.853 44.8222 206.613 44.8522C206.373 44.8822 206.133 44.8972 205.893 44.8972C205.743 44.8972 205.623 44.8372 205.533 44.7172C205.443 44.5672 205.398 44.4322 205.398 44.3122C205.398 44.0722 205.533 43.9222 205.803 43.8622C206.103 43.7722 206.403 43.7122 206.703 43.6822C207.033 43.6522 207.348 43.6222 207.648 43.5922C208.308 43.4722 208.968 43.3522 209.628 43.2322C210.288 43.1122 210.948 43.0222 211.608 42.9622C211.698 42.9322 211.788 42.9172 211.878 42.9172C211.968 42.9172 212.058 42.9172 212.148 42.9172C212.448 42.9172 212.643 43.0072 212.733 43.1872C212.853 43.3672 212.973 43.5772 213.093 43.8172C213.783 45.3172 214.413 46.8622 214.983 48.4522C215.553 50.0122 216.123 51.5722 216.693 53.1322C217.293 54.6022 217.863 56.0872 218.403 57.5872C218.943 59.0872 219.498 60.5872 220.068 62.0872C220.278 61.6972 220.578 61.0522 220.968 60.1522C221.388 59.2222 221.853 58.1722 222.363 57.0022C222.903 55.8022 223.443 54.5572 223.983 53.2672C224.523 51.9772 225.018 50.7472 225.468 49.5772C225.948 48.4072 226.323 47.4022 226.593 46.5622C226.893 45.6922 227.043 45.0922 227.043 44.7622C227.043 44.3722 226.848 44.1472 226.458 44.0872C226.068 43.9972 225.633 43.9672 225.153 43.9972C224.673 44.0272 224.313 44.0422 224.073 44.0422C223.953 44.0422 223.848 43.9822 223.758 43.8622C223.668 43.7422 223.623 43.6222 223.623 43.5022C223.623 43.2022 223.773 43.0522 224.073 43.0522C224.403 43.0222 224.658 43.0072 224.838 43.0072C225.348 43.0072 225.873 43.0222 226.413 43.0522C226.953 43.0522 227.478 43.0522 227.988 43.0522C228.678 43.0522 229.353 43.0372 230.013 43.0072C230.703 42.9772 231.378 42.9622 232.038 42.9622C232.188 42.9622 232.293 43.0222 232.353 43.1422C232.413 43.2322 232.443 43.3372 232.443 43.4572ZM253.402 59.8372C253.402 60.0472 253.372 60.2722 253.312 60.5122C253.282 60.7522 253.237 60.9922 253.177 61.2322C253.147 61.5022 253.117 61.7722 253.087 62.0422C253.087 62.3122 253.057 62.5822 252.997 62.8522C252.937 63.3622 252.892 64.0372 252.862 64.8772C252.832 65.7172 252.757 66.3472 252.637 66.7672C252.547 67.0072 252.412 67.1272 252.232 67.1272C250.372 67.1272 248.512 67.1272 246.652 67.1272C244.792 67.0972 242.932 67.0822 241.072 67.0822C239.752 67.0822 238.432 67.0972 237.112 67.1272C235.792 67.1572 234.472 67.1722 233.152 67.1722C233.032 67.1722 232.897 67.1272 232.747 67.0372C232.627 66.9472 232.567 66.8272 232.567 66.6772C232.567 66.5272 232.642 66.3472 232.792 66.1372C233.422 65.2672 234.052 64.4122 234.682 63.5722C235.342 62.7022 235.972 61.8322 236.572 60.9622C238.192 58.6222 239.827 56.2972 241.477 53.9872C243.157 51.6472 244.732 49.2472 246.202 46.7872C246.322 46.5472 246.427 46.3072 246.517 46.0672C246.637 45.8272 246.697 45.5872 246.697 45.3472C246.697 44.9872 246.592 44.7472 246.382 44.6272C246.172 44.5072 245.917 44.4172 245.617 44.3572C245.227 44.2972 244.837 44.2672 244.447 44.2672C244.057 44.2372 243.667 44.2222 243.277 44.2222C242.437 44.2222 241.567 44.2522 240.667 44.3122C239.797 44.3422 238.957 44.4622 238.147 44.6722C237.637 44.7922 237.157 45.0772 236.707 45.5272C236.287 45.9772 235.972 46.4422 235.762 46.9222C235.552 47.3722 235.417 47.8372 235.357 48.3172C235.297 48.7972 235.192 49.1872 235.042 49.4872C234.982 49.6672 234.817 49.7572 234.547 49.7572C234.487 49.7572 234.382 49.7422 234.232 49.7122C234.112 49.6822 234.052 49.6072 234.052 49.4872C234.052 48.4972 234.082 47.5072 234.142 46.5172C234.202 45.5272 234.232 44.5372 234.232 43.5472C234.232 43.1572 234.442 42.9622 234.862 42.9622C235.462 42.9622 236.077 42.9922 236.707 43.0522C237.337 43.1122 237.967 43.1422 238.597 43.1422C240.967 43.1422 243.322 43.1272 245.662 43.0972C248.032 43.0372 250.402 43.0072 252.772 43.0072C253.072 43.0072 253.222 43.1872 253.222 43.5472C253.222 43.6672 253.192 43.7872 253.132 43.9072C253.072 44.0272 253.012 44.1472 252.952 44.2672C252.832 44.4772 252.697 44.6722 252.547 44.8522C252.397 45.0322 252.247 45.2272 252.097 45.4372C250.897 47.0572 249.682 48.6772 248.452 50.2972C247.222 51.9172 246.037 53.5672 244.897 55.2472C244.717 55.5172 244.387 55.9972 243.907 56.6872C243.427 57.3472 242.872 58.1122 242.242 58.9822C241.642 59.8222 241.057 60.6772 240.487 61.5472C239.917 62.3872 239.437 63.1372 239.047 63.7972C238.687 64.4572 238.507 64.9072 238.507 65.1472C238.507 65.5072 238.672 65.7322 239.002 65.8222C239.332 65.9122 239.632 65.9572 239.902 65.9572C240.382 65.9572 240.847 65.9572 241.297 65.9572C241.777 65.9572 242.242 65.9572 242.692 65.9572C243.562 65.9572 244.492 65.9422 245.482 65.9122C246.502 65.8822 247.477 65.7472 248.407 65.5072C249.337 65.2372 250.102 64.7422 250.702 64.0222C250.972 63.6922 251.212 63.3172 251.422 62.8972C251.632 62.4472 251.797 62.0272 251.917 61.6372C252.007 61.3072 252.082 60.9772 252.142 60.6472C252.232 60.3172 252.337 60.0022 252.457 59.7022C252.517 59.4922 252.697 59.3872 252.997 59.3872C253.267 59.3872 253.402 59.5372 253.402 59.8372Z" fill="white"/>
<circle cx="43.5" cy="44.5" r="8.5" fill="black"/>
</g>
<defs>
<filter id="filter0_b_5_33" x="-4.00003" y="-4" width="326.983" height="95.7655" filterUnits="userSpaceOnUse" color-interpolation-filters="sRGB">
<feFlood flood-opacity="0" result="BackgroundImageFix"/>
<feGaussianBlur in="BackgroundImageFix" stdDeviation="2"/>
<feComposite in2="SourceAlpha" operator="in" result="effect1_backgroundBlur_5_33"/>
<feBlend mode="normal" in="SourceGraphic" in2="effect1_backgroundBlur_5_33" result="shape"/>
</filter>
</defs>
</svg>
